<?xml version="1.0" standalone="no"?>
<!DOCTYPE svg PUBLIC "-//W3C//DTD SVG 20010904//EN"
 "http://www.w3.org/TR/2001/REC-SVG-20010904/DTD/svg10.dtd">
<svg version="1.0" xmlns="http://www.w3.org/2000/svg"
 width="342.000000pt" height="329.000000pt" viewBox="0 0 342.000000 329.000000"
 preserveAspectRatio="xMidYMid meet">

<g transform="translate(0.000000,329.000000) scale(0.100000,-0.100000)"
fill="#000000" stroke="none">
<path d="M1495 3004 c-221 -22 -437 -89 -572 -176 -168 -110 -252 -252 -239
-404 28 -315 318 -874 601 -1160 187 -188 341 -245 498 -185 75 29 194 119
280 210 204 217 420 587 528 902 40 117 43 131 43 239 1 105 -1 120 -27 174
-89 190 -312 322 -647 382 -82 15 -381 26 -465 18z m682 -633 c-6 -434 -12
-489 -61 -596 -30 -67 -90 -133 -141 -156 -80 -37 -168 -16 -213 51 -20 29
-23 45 -20 95 5 82 28 111 154 196 63 42 110 81 119 99 12 22 15 65 15 190 0
93 -4 160 -9 160 -6 0 -123 -25 -261 -55 -138 -30 -253 -55 -256 -55 -2 0 -4
-66 -4 -147 -1 -319 -46 -432 -179 -450 -87 -12 -215 67 -260 160 -51 106 -7
231 90 252 45 10 127 -13 165 -47 l34 -30 0 249 0 249 408 126 c224 69 411
123 416 120 5 -3 6 -178 3 -411z m-632 -896 c33 -8 87 -15 120 -15 33 0 87 7
120 15 78 19 75 19 75 -11 0 -17 -17 -42 -53 -79 -90 -89 -165 -97 -255 -25
-53 41 -97 103 -87 120 8 12 7 12 80 -5z"/>
<path d="M1430 919 c-65 -13 -130 -57 -165 -113 -30 -49 -30 -51 -33 -213 l-3
-163 25 0 c25 0 25 1 28 92 l3 93 83 3 c80 3 82 3 82 27 0 14 -6 25 -12 26 -7
0 -44 2 -83 2 l-70 2 4 30 c8 69 72 137 146 156 40 10 45 14 45 40 0 16 -1 29
-2 28 -2 -1 -23 -5 -48 -10z"/>
<path d="M1606 918 c-2 -7 -3 -119 -3 -248 l2 -235 98 -3 c92 -3 97 -2 97 18
0 11 0 23 0 28 0 4 -30 9 -67 12 l-68 5 -3 218 -2 217 -26 0 c-13 0 -26 -6
-28 -12z"/>
<path d="M810 675 l0 -245 30 0 29 0 3 93 3 92 42 3 c51 4 101 -20 108 -51 3
-12 6 -47 7 -77 3 -52 5 -55 31 -58 l27 -3 0 73 c0 56 -5 81 -21 107 l-21 34
21 38 c12 20 21 48 21 63 0 21 -5 26 -24 26 -19 0 -27 -8 -36 -36 -14 -42 -61
-67 -118 -62 l-37 3 -3 123 -3 122 -29 0 -30 0 0 -245z"/>
<path d="M1920 675 l0 -245 25 0 25 0 0 245 0 245 -25 0 -25 0 0 -245z"/>
<path d="M2100 896 c0 -20 7 -25 45 -35 85 -21 145 -98 145 -186 0 -88 -59
-162 -146 -184 -37 -10 -44 -15 -44 -36 0 -22 4 -25 33 -25 47 1 110 32 154
78 l39 40 33 -40 c38 -45 100 -77 149 -78 30 0 33 2 30 27 -2 21 -10 29 -33
33 -84 18 -141 81 -152 168 -4 40 -1 60 17 97 26 53 83 100 135 109 29 6 35
11 35 31 0 21 -5 25 -32 25 -46 0 -113 -36 -151 -81 l-33 -38 -40 40 c-45 48
-105 78 -151 79 -28 0 -33 -4 -33 -24z"/>
</g>
</svg>
